<svg xmlns="http://www.w3.org/2000/svg" width="14" height="14" viewBox="0 0 14 14">
  <g id="Group_192" data-name="Group 192" transform="translate(-363 -348)">
    <circle id="Ellipse_15" data-name="Ellipse 15" cx="7" cy="7" r="7" transform="translate(363 348)" fill="#4e4f50"/>
    <g id="add_photo_alternate_white_24dp" transform="translate(365.987 351.36)">
      <path id="Path_48" data-name="Path 48" d="M0,0H7.942V7.942H0Z" fill="none"/>
      <path id="Path_49" data-name="Path 49" d="M8.963,2.993H8.295V2.324A.325.325,0,0,0,7.97,2h-.01a.326.326,0,0,0-.328.324v.668H6.968a.33.33,0,0,0-.328.324v.01a.326.326,0,0,0,.328.328h.665V4.32a.323.323,0,0,0,.328.324h.01a.325.325,0,0,0,.324-.324V3.655h.668a.325.325,0,0,0,.324-.324V3.317A.325.325,0,0,0,8.963,2.993ZM7.3,4.32V3.986H6.968a.656.656,0,0,1-.659-.668A.636.636,0,0,1,6.4,2.993H3.662A.664.664,0,0,0,3,3.655V7.626a.664.664,0,0,0,.662.662H7.633a.664.664,0,0,0,.662-.662V4.886a.678.678,0,0,1-.338.093A.662.662,0,0,1,7.3,4.32ZM7.289,7.626h-3.3a.165.165,0,0,1-.132-.265l.655-.87a.167.167,0,0,1,.271.007l.529.8L6.18,6.143a.165.165,0,0,1,.261,0l.976,1.218A.165.165,0,0,1,7.289,7.626Z" transform="translate(-2.007 -1.338)" fill="#fff"/>
    </g>
  </g>
</svg>
