<svg xmlns="http://www.w3.org/2000/svg" width="23" height="23" viewBox="0 0 23 23">
  <g id="Group_185" data-name="Group 185" transform="translate(-599 -90)">
    <circle id="Ellipse_10" data-name="Ellipse 10" cx="11.5" cy="11.5" r="11.5" transform="translate(599 90)" fill="#4e4f50"/>
    <g id="notifications_active_white_24dp" transform="matrix(0.978, -0.208, 0.208, 0.978, 603, 96.548)">
      <path id="Path_38" data-name="Path 38" d="M0,0H12.859V12.859H0Z" transform="translate(0 0)" fill="none"/>
      <path id="Path_39" data-name="Path 39" d="M8.5,7.233V4.554A3.264,3.264,0,0,0,6.092,1.168V.8A.807.807,0,0,0,5.283,0a.8.8,0,0,0-.8.8v.364A3.255,3.255,0,0,0,2.074,4.554V7.233l-.7.691a.536.536,0,0,0,.375.916H8.809a.537.537,0,0,0,.38-.916Zm-3.22,3.215A1.075,1.075,0,0,0,6.355,9.376H4.212A1.071,1.071,0,0,0,5.283,10.448Zm-2.8-9.253A.528.528,0,0,0,2.5.429.535.535,0,0,0,1.758.418,5.585,5.585,0,0,0,.006,3.665a.542.542,0,0,0,.536.622.534.534,0,0,0,.525-.445A4.522,4.522,0,0,1,2.487,1.195ZM8.825.418a.542.542,0,0,0-.75.011.526.526,0,0,0,.016.761,4.552,4.552,0,0,1,1.42,2.647.526.526,0,0,0,.525.445.538.538,0,0,0,.53-.622A5.619,5.619,0,0,0,8.825.418Z" transform="translate(1.141 1.339)" fill="#fff"/>
    </g>
  </g>
</svg>
