<svg xmlns="http://www.w3.org/2000/svg" width="10" height="10" viewBox="0 0 10 10">
  <g id="u_turn_left_white_24dp" transform="translate(0 9.374) rotate(-90)">
    <g id="Group_181" data-name="Group 181" transform="translate(-0.428)">
      <rect id="Rectangle_194" data-name="Rectangle 194" width="10" height="10" transform="translate(-0.199)" fill="none"/>
      <rect id="Rectangle_195" data-name="Rectangle 195" width="10" height="10" transform="translate(-0.199)" fill="none"/>
    </g>
    <g id="Group_182" data-name="Group 182" transform="translate(1.264 1.151)">
      <path id="Path_55" data-name="Path 55" d="M3.529,6.565a.382.382,0,0,1,.541,0l.338.338V5.3a2.3,2.3,0,1,1,4.6,0V9.523a.384.384,0,0,1-.767,0V5.3a1.535,1.535,0,1,0-3.07,0V6.9l.338-.338a.383.383,0,0,1,.541.541L5.06,8.1a.382.382,0,0,1-.541,0l-.994-.994A.386.386,0,0,1,3.529,6.565Z" transform="translate(-3.416 -3)" fill="#fff"/>
    </g>
  </g>
</svg>
